<svg fill="#fff" id="Layer_1" data-name="Layer 1" xmlns="http://www.w3.org/2000/svg" viewBox="0 0 994.74 994.7">
  <path class="cls-1" d="m482.37,8.89L1.71,971.46c-5.33,10.68,2.43,23.24,14.37,23.24h181.56c6.1,0,11.67-3.45,14.39-8.92l103-207.26,96.81-194.95,70.56-138.91c5.95-11.72,22.7-11.72,28.65,0l70.55,138.91,96.82,194.95,104.3,207.33c2.73,5.42,8.28,8.85,14.35,8.85h181.58c11.95,0,19.72-12.58,14.37-23.26L511.11,8.87c-5.93-11.84-22.83-11.83-28.74.01Z"/>
  <path class="cls-1" d="m373.15,994.7c-11.88,0-19.64-12.51-14.38-23.2l53.72-108.13,70.54-138.9c5.94-11.69,22.7-11.69,28.64,0l70.54,138.9,53.72,108.13c5.31,10.69-2.44,23.2-14.38,23.2h-248.4Z"/>
</svg>