<?xml version="1.0" encoding="UTF-8"?>
<svg id="Layer_1" data-name="Layer 1" xmlns="http://www.w3.org/2000/svg" viewBox="0 0 811.23 151.54">
  <g>
    <rect id="shown" x="497.21" width="32.11" height="27.37" rx="2.45" ry="2.45"/>
    <path id="shown-2" data-name="shown" d="m499.66,47.71c-1.35,0-2.45,1.1-2.45,2.45v43.24c-.04,7.81-2.49,15.45-8.3,20.98-2.1,2.18-4.47,4.11-7.19,5.53-6.52,2.09-13.37,2.92-19.16.32-1.6-.67-3.13-1.48-4.59-2.42s-2.7-2.01-3.71-3.23c-2.92-2.96-5.02-6.25-6.34-9.89-1.31-3.23-1.97-6.99-1.97-11.29V2.68c0-1.35-1.1-2.45-2.45-2.45h-27.21c-1.35,0-2.45,1.1-2.45,2.45v92.49c.14,7.14,1.64,14.11,4.48,20.91s6.73,12.83,11.69,18.08c4.95,5.25,10.85,9.46,17.69,12.63,13.85,6.64,33.85,6.02,47.76,0,6.84-3.16,12.7-7.37,17.58-12.63,4.88-5.25,8.74-11.25,11.58-17.98s4.4-13.67,4.7-20.81v-45.21c0-1.35-1.1-2.45-2.45-2.45h-27.21Z"/>
  </g>
  <g>
    <path id="shown-3" data-name="shown" d="m652.76,42.15c-.73,1.38-2.54,1.74-3.76.76-5.19-4.2-10.25-7.3-15.18-9.31-11.59-4.82-22.45-4.52-33.58.2-5.66,2.45-10.65,5.83-14.95,10.11s-7.68,9.39-10.13,15.32c-2.45,5.93-3.48,12.36-3.07,19.3.41,4.36,1.43,8.64,3.07,12.87,1.64,4.23,3.75,8.11,6.34,11.64s5.66,6.68,9.21,9.39c3.55,2.73,7.44,4.83,11.67,6.33,7.05,2.4,13.67,3.14,20.78,2.35,1.84-.2,3.79-.44,5.84-.72h-.2c4.23-.68,8.6-1.98,13.1-3.89,3.67-1.56,7.38-3.2,11.14-4.93,1.37-.63,2.97.07,3.41,1.51l7.37,23.81c.34,1.12-.14,2.35-1.18,2.92-6.69,3.62-13.64,6.43-20.85,8.44-14.07,3.92-28.15,4.36-42.07,1.12-6.14-1.43-12.01-3.72-17.61-6.86v.2c-6.41-3.27-12.12-7.34-17.1-12.18-4.99-4.84-9.21-10.23-12.7-16.17-3.48-5.94-6.11-12.25-7.88-18.94s-2.59-13.58-2.46-20.68c0-7.09.99-13.99,2.97-20.68s4.77-12.9,8.39-18.64c7.39-11.68,17.89-21.29,30.4-27.64,5.59-2.73,11.16-4.71,16.69-5.94,22.42-5.27,44.27,1.13,63.58,14.23,1.05.7,1.39,2.1.8,3.21l-12.07,22.85h.03Z"/>
    <path id="shown-4" data-name="shown" d="m634.29,75.02l-16.1-16.1c-.97-.97-2.41-1.09-3.23-.28l-16.39,16.39c-.81.81-.69,2.26.28,3.23l16.1,16.1c.97.97,2.41,1.09,3.23.28l16.39-16.39c.81-.81.69-2.26-.28-3.23Z"/>
  </g>
  <path id="shown-5" data-name="shown" d="m121.43,151.54h27.66c1.82,0,3-1.92,2.19-3.54L77.86,1.36c-.9-1.8-3.48-1.8-4.38,0L.26,148c-.81,1.63.37,3.54,2.19,3.54h27.66c.93,0,1.78-.53,2.19-1.36l5.07-10.21c.41-.83,1.26-1.36,2.19-1.36h72.34c.92,0,1.77.52,2.19,1.35l5.15,10.23c.42.83,1.26,1.35,2.19,1.35h0Zm-47.94-83.8c.91-1.79,3.46-1.79,4.36,0l10.75,21.16,8.18,16.47c.81,1.63-.38,3.54-2.19,3.54h-37.84c-1.82,0-3-1.91-2.19-3.54l8.18-16.47,10.75-21.16Z"/>
  <path id="shown-6" data-name="shown" d="m781.12,151.54h27.66c1.82,0,3-1.92,2.19-3.54L737.55,1.36c-.9-1.8-3.48-1.8-4.38,0l-73.23,146.64c-.81,1.63.37,3.54,2.19,3.54h27.66c.93,0,1.78-.53,2.19-1.36l5.07-10.21c.41-.83,1.26-1.36,2.19-1.36h72.34c.92,0,1.77.52,2.19,1.35l5.15,10.23c.42.83,1.26,1.35,2.19,1.35h.01Zm-47.94-83.8c.91-1.79,3.46-1.79,4.36,0l10.75,21.16,8.18,16.47c.81,1.63-.38,3.54-2.19,3.54h-37.84c-1.82,0-3-1.91-2.19-3.54l8.18-16.47,10.75-21.16h0Z"/>
  <g>
    <path d="m337.36,1.35l-73.23,146.64c-.81,1.63.37,3.54,2.19,3.54h27.66c.93,0,1.78-.53,2.19-1.36l15.69-31.58,14.75-29.7,10.75-21.16c.91-1.79,3.46-1.79,4.36,0l10.75,21.16,14.75,29.7,15.89,31.59c.42.83,1.26,1.35,2.19,1.35h27.66c1.82,0,3-1.92,2.19-3.54L341.73,1.35c-.9-1.8-3.48-1.8-4.38,0h.01Z"/>
    <path d="m320.72,151.54c-1.81,0-2.99-1.91-2.19-3.53l8.18-16.47,10.75-21.16c.91-1.78,3.46-1.78,4.36,0l10.75,21.16,8.18,16.47c.81,1.63-.37,3.53-2.19,3.53h-37.84,0Z"/>
  </g>
  <g>
    <path id="shown-7" data-name="shown" d="m208.08,99.6c.22,0,.79.02,1.38.4.59.38.84.91.92,1.11l20.25,48.91c.38.91,1.27,1.51,2.26,1.51h25.03c1.74,0,2.92-1.76,2.27-3.37l-21.56-52.93c-.47-1.17,0-2.5,1.11-3.1,7.27-3.91,12.86-9.33,16.77-16.26,3.91-6.94,5.86-15.25,5.86-24.95,0-32.46-19.87-48.69-59.6-48.69h-47.26c-1.35,0-2.45,1.1-2.45,2.45v24.81c0,1.35,1.1,2.45,2.45,2.45h47.26c2.98-.02,5.49.09,7.37.2,4.58.27,6.6.68,7.19.8.47.1,2.22.47,4.43,1.22,2.49.84,3.77,1.55,4.24,1.82.48.28.84.48,1.3.82,1.98,1.45,2.97,3.22,3.43,4.05.18.32.97,1.81,1.41,3.87.25,1.17.34,2.31.41,3.17.03.41.08,1.1.1,2.02.04,1.73.08,3.7-.29,5.93-.27,1.63-.55,3.31-1.58,5.22-1.1,2.04-2.54,3.36-3.49,4.1-.83.74-4.13,1.95-5.13,2.43-1.31.33-3.32.78-5.79,1.15-3.83.57-6.75.63-8.22.66-5.28.11-14.12.32-25.4.51-16.38-.07-29.7,13.2-29.7,29.58v49.59c0,1.35,1.1,2.45,2.45,2.45h24.81c1.35,0,2.45-1.1,2.45-2.45v-47.03c0-.52.11-1.23.62-1.76.58-.61,1.43-.67,1.83-.69,1.75-.09,10.66-.11,22.87-.01Z"/>
    <path id="shown-8" data-name="shown" d="m153.06,41.34c0-1.11,1.16-1.83,2.16-1.34l10.06,5,12.92,6.56c1.09.55,1.09,2.11,0,2.66l-12.92,6.56-10.06,5c-.99.49-2.16-.23-2.16-1.34v-23.11h0Z"/>
  </g>
</svg>