<svg xmlns="http://www.w3.org/2000/svg" viewBox="0 0 811.23 151.55"><g><rect id="shown" x="501.88" y="2.23" width="32.11" height="27.37" rx="2.45" ry="2.45"></rect><path id="shown" d="m504.33,47.71c-1.35,0-2.45,1.1-2.45,2.45v43.24c-.04,7.81-2.49,15.45-8.3,20.98-2.1,2.18-4.47,4.11-7.19,5.53-6.52,2.09-13.37,2.92-19.16.32-1.6-.67-3.13-1.48-4.59-2.42s-2.7-2.01-3.71-3.23c-2.92-2.96-5.02-6.25-6.34-9.89-1.31-3.23-1.97-6.99-1.97-11.29V4.68c0-1.35-1.1-2.45-2.45-2.45h-27.21c-1.35,0-2.45,1.1-2.45,2.45v90.49c.14,7.14,1.64,14.11,4.48,20.91,2.84,6.8,6.73,12.83,11.69,18.08,4.95,5.25,10.85,9.46,17.69,12.63,13.85,6.64,33.85,6.02,47.76,0,6.84-3.16,12.7-7.37,17.58-12.63,4.88-5.25,8.74-11.25,11.58-17.98s4.4-13.67,4.7-20.81v-45.21c0-1.35-1.1-2.45-2.45-2.45h-27.21Z"></path></g><g><path id="shown" d="m645.96,43.6c-.72,1.36-2.51,1.72-3.71.75-5.12-4.14-10.12-7.2-14.98-9.19-11.44-4.76-22.15-4.46-33.14.2-5.59,2.42-10.51,5.75-14.75,9.98s-7.58,9.27-10,15.12-3.43,12.2-3.03,19.05c.4,4.3,1.41,8.53,3.03,12.7,1.62,4.17,3.7,8,6.26,11.49s5.59,6.59,9.09,9.27c3.5,2.69,7.34,4.77,11.52,6.25,6.96,2.37,13.49,3.1,20.51,2.32,1.82-.2,3.74-.43,5.76-.71h-.2c4.17-.67,8.49-1.95,12.93-3.84,3.62-1.54,7.28-3.16,10.99-4.87,1.35-.62,2.93.07,3.37,1.49l7.27,23.5c.34,1.11-.14,2.32-1.16,2.88-6.6,3.57-13.46,6.35-20.58,8.33-13.88,3.87-27.78,4.3-41.52,1.11-6.06-1.41-11.85-3.67-17.38-6.77v.2c-6.33-3.23-11.96-7.24-16.87-12.02-4.92-4.78-9.09-10.1-12.53-15.96-3.43-5.86-6.03-12.09-7.78-18.69s-2.56-13.4-2.43-20.41c0-7,.98-13.81,2.93-20.41s4.71-12.73,8.28-18.39c7.29-11.53,17.65-21.01,30-27.28,5.52-2.69,11.01-4.65,16.47-5.86,22.12-5.2,43.69,1.12,62.74,14.04,1.04.69,1.37,2.07.79,3.17l-11.91,22.55h.03Z"></path><path id="shown" d="m627.74,76.04l-15.89-15.89c-.96-.96-2.38-1.08-3.19-.28l-16.17,16.17c-.8.8-.68,2.23.28,3.19l15.89,15.89c.96.96,2.38,1.08,3.19.28l16.17-16.17c.8-.8.68-2.23-.28-3.19Z"></path></g><path id="shown" d="m121.43,151.54h27.66c1.82,0,3-1.92,2.19-3.54L77.86,1.36c-.9-1.8-3.48-1.8-4.38,0L.26,148c-.81,1.63.37,3.54,2.19,3.54h27.66c.93,0,1.78-.53,2.19-1.36l5.07-10.21c.41-.83,1.26-1.36,2.19-1.36h72.34c.92,0,1.77.52,2.19,1.35l5.15,10.23c.42.83,1.26,1.35,2.19,1.35h0Zm-47.94-83.8c.91-1.79,3.46-1.79,4.36,0l10.75,21.16,8.18,16.47c.81,1.63-.38,3.54-2.19,3.54h-37.84c-1.82,0-3-1.91-2.19-3.54l8.18-16.47,10.75-21.16Z"></path><path id="shown" d="m781.12,151.54h27.66c1.82,0,3-1.92,2.19-3.54L737.55,1.36c-.9-1.8-3.48-1.8-4.38,0l-73.23,146.64c-.81,1.63.37,3.54,2.19,3.54h27.66c.93,0,1.78-.53,2.19-1.36l5.07-10.21c.41-.83,1.26-1.36,2.19-1.36h72.34c.92,0,1.77.52,2.19,1.35l5.15,10.23c.42.83,1.26,1.35,2.19,1.35h.01Zm-47.94-83.8c.91-1.79,3.46-1.79,4.36,0l10.75,21.16,8.18,16.47c.81,1.63-.38,3.54-2.19,3.54h-37.84c-1.82,0-3-1.91-2.19-3.54l8.18-16.47,10.75-21.16h0Z"></path><path d="m337.74,1.35l-73.23,146.64c-.81,1.63.37,3.54,2.19,3.54h27.66c.93,0,1.78-.53,2.19-1.36l15.69-31.58,14.75-29.7,10.75-21.16c.91-1.79,3.46-1.79,4.36,0l10.75,21.16,14.75,29.7,15.89,31.59c.42.83,1.26,1.35,2.19,1.35h27.66c1.82,0,3-1.92,2.19-3.54L342.11,1.35c-.9-1.8-3.48-1.8-4.38,0h.01Z"></path><path d="m321.1,151.54c-1.81,0-2.99-1.91-2.19-3.53l8.18-16.47,10.75-21.16c.91-1.78,3.46-1.78,4.36,0l10.75,21.16,8.18,16.47c.81,1.63-.37,3.53-2.19,3.53h-37.84,0Z"></path><g><path id="shown" d="m209.28,99.61c1-.01,1.91.58,2.3,1.51l20.25,48.91c.38.91,1.27,1.51,2.26,1.51h25.03c1.74,0,2.92-1.76,2.27-3.37l-21.56-52.93c-.47-1.17,0-2.5,1.11-3.1,7.27-3.91,12.86-9.33,16.77-16.26,3.91-6.94,5.86-15.25,5.86-24.95,0-32.46-19.87-48.69-59.6-48.69h-47.26c-1.35,0-2.45,1.1-2.45,2.45v24.81c0,1.35,1.1,2.45,2.45,2.45h47.26c2.56,0,5.02.07,7.37.2,2.36.14,4.81.47,7.37,1.01l-.2-.2c1.48.4,2.96.81,4.45,1.21,1.48.4,2.89,1.01,4.24,1.82,1.48.81,2.76,1.89,3.84,3.23.13.27.27.44.4.5.13.07.27.17.4.3,0,.54.2,1.01.61,1.41.27.94.47,1.69.61,2.22.13.54.27,1.08.4,1.62v-.2c.13,1.08.23,2.02.3,2.83s.1,1.48.1,2.02c0,.17.02,2.48-.02,2.57l-.59,5.11v-.2c-.77,2.16-1.01,4.25-2.53,5.76-.2.2-.51.5-.91.91,0,.14-.07.2-.2.2-.27.27-.64.57-1.11.91-.83.74-4.13,1.95-5.13,2.43.07.08-4.91,1.06-5.07,1.11-2.56.54-34.35,1.21-34.35,1.21-16.38-.07-29.7,13.2-29.7,29.58v49.59c0,1.35,1.1,2.45,2.45,2.45h24.81c1.35,0,2.45-1.1,2.45-2.45v-47.03c0-1.35,1.1-2.45,2.45-2.45"></path><path id="shown" d="m154.26,41.35c0-1.11,1.16-1.83,2.16-1.34l10.06,5,12.92,6.56c1.09.55,1.09,2.11,0,2.66l-12.92,6.56-10.06,5c-.99.49-2.16-.23-2.16-1.34v-23.11h0Z"></path></g></svg>